<svg width="70" height="70" viewBox="0 0 70 70" fill="none" xmlns="http://www.w3.org/2000/svg">
<path d="M35 61.25C49.4975 61.25 61.25 49.4975 61.25 35C61.25 20.5025 49.4975 8.75 35 8.75C20.5025 8.75 8.75 20.5025 8.75 35C8.75 49.4975 20.5025 61.25 35 61.25Z" stroke="#E76504" stroke-width="4"/>
<path d="M20.4167 26.25C22.0275 26.25 23.3333 24.9442 23.3333 23.3333C23.3333 21.7225 22.0275 20.4167 20.4167 20.4167C18.8058 20.4167 17.5 21.7225 17.5 23.3333C17.5 24.9442 18.8058 26.25 20.4167 26.25Z" stroke="#E76504" stroke-width="3"/>
<path d="M49.5834 26.25C51.1942 26.25 52.5001 24.9442 52.5001 23.3333C52.5001 21.7225 51.1942 20.4167 49.5834 20.4167C47.9726 20.4167 46.6667 21.7225 46.6667 23.3333C46.6667 24.9442 47.9726 26.25 49.5834 26.25Z" stroke="#E76504" stroke-width="3"/>
<path d="M34.9999 52.5C36.6107 52.5 37.9166 51.1942 37.9166 49.5833C37.9166 47.9725 36.6107 46.6667 34.9999 46.6667C33.3891 46.6667 32.0833 47.9725 32.0833 49.5833C32.0833 51.1942 33.3891 52.5 34.9999 52.5Z" stroke="#E76504" stroke-width="3"/>
<path d="M20.4167 23.3333H49.5834" stroke="#E76504" stroke-width="3"/>
<path d="M20.4167 23.3333L35.0001 49.5833" stroke="#E76504" stroke-width="3"/>
<path d="M49.5833 23.3333L35 49.5833" stroke="#E76504" stroke-width="3"/>
</svg>
